<svg width="513" height="620" viewBox="0 0 513 620" fill="none" xmlns="http://www.w3.org/2000/svg">
<path d="M265.57 603.56C243.907 603.56 223.565 593.862 208.23 576.221L155.071 515.065L99.3108 450.904C85.5771 435.101 85.5771 409.383 99.3062 393.571C106.245 385.597 115.556 381.149 124.495 381.722C124.427 371.232 127.863 360.722 134.793 352.738L137.427 349.712C144.362 341.733 153.528 338.035 162.612 337.858C162.544 327.378 165.979 316.868 172.909 308.879L175.354 306.072C179.133 301.723 183.56 298.577 188.285 296.619L121.263 219.493C103.813 199.415 103.813 166.733 121.263 146.644C138.721 126.565 167.124 126.551 184.574 146.644L403.626 398.697C423.393 421.437 423.393 458.447 403.626 481.192L323.612 575.447C308.349 593.431 287.912 603.411 266.064 603.561C265.901 603.566 265.738 603.566 265.575 603.566L265.57 603.56ZM169.411 498.565L222.569 559.721C234.157 573.049 249.864 580.659 265.942 580.221C282.328 580.107 297.658 572.617 309.101 559.133L389.2 464.779C401.141 451.033 401.141 428.831 389.286 415.185L170.234 163.145C160.688 152.161 145.153 152.161 135.598 163.145C126.051 174.135 126.051 192.009 135.598 203L283.479 373.16C285.461 375.441 286.448 378.426 286.448 381.41C286.448 384.394 285.457 387.379 283.479 389.66C279.518 394.217 273.104 394.217 269.139 389.66L210.839 322.577C205.009 315.879 195.522 315.859 189.692 322.583L187.252 325.385C181.427 332.093 181.427 343.01 187.252 349.718L245.552 416.801C247.534 419.082 248.521 422.066 248.521 425.051C248.521 428.035 247.53 431.019 245.552 433.301C241.591 437.858 235.177 437.858 231.212 433.301L172.913 366.218C167.083 359.52 157.595 359.499 151.765 366.223L149.135 369.244C143.31 375.952 143.31 386.869 149.135 393.577L207.435 460.66C209.417 462.941 210.404 465.926 210.404 468.91C210.404 471.894 209.413 474.879 207.435 477.16C203.474 481.717 197.06 481.717 193.095 477.16L134.796 410.077C128.966 403.379 119.478 403.359 113.648 410.083C107.823 416.786 107.823 427.703 113.648 434.411L169.411 498.565Z" fill="white"/>
<path d="M328.224 324.48C326.459 324.48 324.671 323.949 323.041 322.834C318.234 319.537 316.659 312.376 319.524 306.839L371.257 207.001C373.706 202.121 373.706 196.121 371.189 191.094C368.672 186.073 364.164 183.079 359.126 183.079C342.374 183.079 326.726 192.579 317.28 208.491L277.982 268.34C274.601 273.47 268.25 274.481 263.778 270.611C259.31 266.725 258.427 259.408 261.804 254.267L300.822 194.865C313.772 173.043 335.68 159.74 359.131 159.74C371.502 159.74 382.577 167.099 388.76 179.428C394.943 191.756 394.943 206.48 388.751 218.808L336.951 318.781C335.05 322.448 331.682 324.48 328.224 324.48Z" fill="white"/>
<path d="M253.762 163.107C251.616 163.107 249.475 162.325 247.669 160.763C235.584 150.31 223.594 141.456 212.002 132.899C204.75 127.55 197.607 122.279 190.6 116.748C180.629 109.014 174.907 95.2896 174.962 79.1549C174.962 63.6709 180.308 48.6083 189.636 37.8843C206.42 18.8163 233.275 15.8109 253.734 29.5561C274.217 15.8161 301.067 18.8269 317.779 37.8373C327.162 48.5717 332.53 63.64 332.535 79.192C332.584 95.3067 326.863 109.02 316.832 116.801C309.902 122.27 302.792 127.52 295.567 132.859C283.965 141.426 271.971 150.291 259.858 160.76C258.052 162.328 255.907 163.109 253.761 163.109L253.762 163.107ZM225.857 44.4453C218.044 44.4453 210.095 47.4349 203.921 54.4453C198.499 60.6849 195.24 69.9613 195.24 79.2106C195.208 87.471 197.675 94.1067 202.002 97.4613C208.909 102.909 215.871 108.045 222.95 113.268C232.94 120.638 243.219 128.221 253.771 136.961C264.335 128.211 274.619 120.617 284.614 113.227C291.666 108.018 298.604 102.893 305.431 97.508C309.821 94.1017 312.288 87.4664 312.256 79.2533V79.2064C312.256 69.9564 308.984 60.6851 303.498 54.4091C291.055 40.2478 271.233 42.5236 260.04 52.7946C256.337 56.1748 251.1 56.1748 247.407 52.7842C241.744 47.5967 233.873 44.4453 225.857 44.4453Z" fill="white"/>
</svg>
